<svg version="1.1" id="Layer_1" xmlns="http://www.w3.org/2000/svg" xmlns:xlink="http://www.w3.org/1999/xlink" x="0px" y="0px"
	 width="100%" viewBox="0 0 1080 875" enable-background="new 0 0 1080 875" xml:space="preserve">
<path fill="#DA6140" opacity="1.000000" stroke="none" 
	d="
M898.845032,763.993469 
	C898.901855,769.651123 899.001221,775.308777 899.003235,780.966431 
	C899.005249,786.458435 896.680908,788.773499 891.349854,790.110535 
	C884.463501,791.837708 877.729065,794.161133 870.890625,796.091309 
	C864.805847,797.808716 858.669800,799.344604 852.554321,800.952820 
	C839.748047,804.320557 826.931702,807.650574 814.136780,811.060852 
	C806.908508,812.987366 799.644226,814.822021 792.523438,817.096558 
	C784.092896,819.789551 775.836731,823.024353 767.430481,825.798706 
	C763.453003,827.111389 759.307922,827.922119 755.228821,828.919556 
	C749.586060,830.299255 743.918701,831.580444 738.289368,833.011780 
	C729.213623,835.319336 720.084045,837.460510 711.119446,840.146545 
	C702.581421,842.704834 694.318665,846.190491 685.764404,848.683533 
	C676.249084,851.456787 666.493835,853.396484 656.929688,856.015503 
	C646.357666,858.910522 635.902405,862.229187 625.359192,865.233398 
	C620.402405,866.645813 615.300171,867.559509 610.369446,869.048645 
	C603.979309,870.978455 597.694580,873.257019 591.682251,875.692749 
	C587.975464,876.000000 583.950928,876.000000 579.446533,875.739868 
	C578.948181,875.306824 578.929749,875.133972 579.178772,874.709595 
	C581.814087,873.806885 584.214050,873.252991 586.544250,872.486877 
	C594.896912,869.740662 603.195251,866.825684 611.574097,864.163391 
	C617.940002,862.140564 624.388733,860.375305 630.816467,858.551392 
	C634.908997,857.390198 639.008118,856.237244 643.144653,855.249817 
	C648.392639,853.997131 653.735046,853.113159 658.937317,851.703369 
	C663.760742,850.396179 668.405334,848.436951 673.216431,847.074463 
	C678.401123,845.606323 683.678772,844.459229 688.931763,843.240967 
	C699.048584,840.894775 708.234863,835.056946 719.035706,835.226013 
	C719.748901,835.237122 720.438049,834.420044 721.199219,834.185913 
	C723.314148,833.535461 725.468140,833.012756 727.593262,832.393494 
	C728.951721,831.997498 730.278564,831.493835 731.633606,831.084900 
	C733.439941,830.539795 735.260498,830.041870 737.073669,829.519348 
	C738.590027,829.082336 740.128479,828.706665 741.613159,828.179993 
	C743.144836,827.636536 744.573547,826.745911 746.134338,826.352356 
	C750.981934,825.129944 755.913391,824.226562 760.732483,822.907593 
	C766.044067,821.453857 771.249512,819.617065 776.534790,818.061096 
	C780.291809,816.955017 784.112732,816.068115 787.888977,815.024719 
	C790.123474,814.407410 792.329407,813.685486 794.542969,812.993713 
	C798.730530,811.684998 802.863281,810.158997 807.112915,809.101318 
	C812.217651,807.830811 817.480713,807.182739 822.564270,805.843994 
	C827.631775,804.509338 832.527466,802.535645 837.561951,801.058533 
	C842.821838,799.515137 848.157837,798.231323 853.459717,796.830750 
	C857.075500,795.875610 860.710510,794.985840 864.299805,793.939453 
	C869.752197,792.349915 875.070984,789.984802 880.627747,789.137207 
	C891.714966,787.446045 893.828247,785.533264 894.056152,774.514282 
	C894.093811,772.693481 893.935120,770.653748 894.687744,769.117065 
	C895.630371,767.192200 897.420654,765.682434 898.845032,763.993469 
z"/>
<path fill="#DB5F38" opacity="1.000000" stroke="none" 
	d="
M578.911377,874.961121 
	C578.929749,875.133972 578.948181,875.306824 578.983276,875.739868 
	C576.958313,876.000000 574.916687,876.000000 572.437500,876.000000 
	C569.622620,874.687439 567.378296,872.972839 564.844116,872.133728 
	C555.292236,868.971191 545.674255,865.996704 536.017212,863.169983 
	C533.236328,862.356018 530.240662,862.275574 527.130920,861.176880 
	C526.944458,860.021118 526.970581,859.547302 527.383240,858.978760 
	C534.426025,856.546021 539.630188,861.374939 545.570679,862.572388 
	C551.164062,863.699890 556.639648,865.433411 562.139709,866.996704 
	C568.167297,868.709900 574.971680,868.834961 578.911377,874.961121 
z"/>
<path fill="#E34F27" opacity="1.000000" stroke="none" 
	d="
M579.178772,874.709595 
	C574.971680,868.834961 568.167297,868.709900 562.139709,866.996704 
	C556.639648,865.433411 551.164062,863.699890 545.570679,862.572388 
	C539.630188,861.374939 534.426025,856.546021 527.156128,858.707825 
	C524.682617,857.410522 522.905212,856.106506 520.939636,855.219543 
	C518.987122,854.338562 516.862244,853.814392 514.780945,853.252136 
	C513.220886,852.830688 511.612610,852.583740 510.021240,852.283447 
	C508.612793,852.017700 507.153168,851.931091 505.793915,851.512756 
	C500.439484,849.865173 495.155670,847.976929 489.768066,846.451843 
	C485.366852,845.205872 480.793823,844.557922 476.409027,843.264893 
	C471.412445,841.791504 466.554901,839.852478 461.608521,838.200928 
	C458.348969,837.112549 455.062469,836.088806 451.746918,835.187317 
	C445.182526,833.402588 438.589661,831.722473 431.577484,829.984619 
	C429.181000,829.779053 427.125549,829.891296 425.267090,829.339661 
	C419.781158,827.711365 414.391724,825.761108 408.929016,824.050171 
	C404.115509,822.542603 399.311981,820.919983 394.393982,819.857788 
	C391.025970,819.130371 387.469208,819.276794 383.807312,818.724609 
	C382.956451,817.478760 382.474915,815.965027 381.605652,815.693665 
	C374.136597,813.362610 366.615723,811.190002 359.072998,809.105225 
	C353.828979,807.655762 348.473999,806.594666 343.261414,805.047424 
	C335.142853,802.637451 327.115997,799.919739 319.014191,797.450928 
	C317.975555,797.134399 316.720673,797.582336 315.566711,797.574036 
	C314.428650,797.565796 313.127014,797.760742 312.180664,797.292969 
	C306.144257,794.309265 300.449951,790.231445 293.095886,792.006348 
	C292.800873,792.077515 292.420410,791.977234 292.127655,791.848267 
	C285.927887,789.116455 279.735016,786.369080 273.624420,783.661804 
	C272.192444,784.919250 270.980774,785.983276 269.769073,787.047302 
	C269.171844,785.603027 268.574585,784.158752 268.257202,782.040344 
	C270.789490,773.839783 271.818329,766.250977 270.373077,757.830200 
	C268.914093,759.714417 268.032013,760.853577 267.149963,761.992737 
	C266.771271,759.760925 266.278656,757.541504 266.033691,755.295105 
	C264.976166,745.597473 263.991089,735.892029 262.980774,726.189270 
	C262.963562,726.023804 262.963562,725.856628 262.950775,725.690674 
	C262.300354,717.231201 261.594543,708.775574 261.016815,700.311218 
	C260.589905,694.056885 261.339905,687.524841 259.774078,681.589050 
	C256.975189,670.979004 257.535950,660.298523 256.895294,649.601257 
	C255.973831,634.215393 255.194626,618.732300 252.721100,603.557007 
	C250.856277,592.116150 250.924011,580.697693 249.963501,569.283813 
	C249.855835,568.004333 249.351578,566.758240 249.192017,564.798157 
	C250.218964,560.138062 251.728943,556.188477 251.802505,552.212280 
	C251.916870,546.029785 251.199829,539.814514 250.572891,533.639771 
	C249.545776,523.523682 246.845993,513.581909 247.852921,503.242249 
	C248.046936,501.249878 246.621460,499.099823 245.952820,496.555359 
	C245.528839,490.332031 245.069778,484.577606 244.667267,478.819214 
	C244.036423,469.794037 243.571655,460.755280 242.799118,451.742615 
	C242.021667,442.672607 241.067749,433.612915 239.908737,424.584930 
	C239.701218,422.968658 238.120407,421.528687 237.173676,420.007294 
	C236.456299,418.364441 235.206940,416.752258 235.110260,415.073669 
	C234.588791,406.018341 235.381393,396.757416 233.757019,387.928711 
	C231.756821,377.057068 231.666718,366.193390 230.942169,355.295380 
	C229.867126,339.125397 229.208664,322.850342 226.719055,306.877747 
	C224.916351,295.312195 224.917725,283.776215 223.970276,272.238464 
	C223.155289,262.313782 222.707977,252.281052 220.825302,242.542145 
	C218.602783,231.045273 218.536942,219.522263 217.889481,207.952744 
	C217.047897,192.914200 215.359909,177.922134 213.985596,162.914719 
	C213.406067,156.585983 212.697311,150.269058 212.401611,143.253754 
	C213.279968,138.606094 213.803986,134.651459 214.328003,130.696838 
	C213.544312,130.647522 212.760635,130.598190 211.976944,130.548874 
	C211.976944,133.411011 211.976944,136.273163 211.976944,139.135300 
	C211.735519,138.919312 211.304352,138.722580 211.280182,138.484528 
	C210.501205,130.807312 209.651627,123.134697 209.049866,115.442848 
	C208.548569,109.035057 209.246063,102.394142 207.810501,96.229568 
	C205.295303,85.428802 205.623154,74.547798 204.921295,63.667591 
	C203.921585,48.170303 202.320740,32.712181 201.029236,17.232946 
	C200.821518,14.743366 200.886887,12.231001 201.351746,9.518900 
	C206.338806,9.231591 210.800110,9.088268 215.261459,9.087173 
	C337.533630,9.057136 459.805786,9.041595 582.537598,9.047471 
	C709.699951,9.060044 836.402710,9.048785 963.270020,9.292154 
	C963.984619,10.392564 964.534729,11.238344 965.084839,12.084119 
	C965.383545,14.447108 965.682251,16.810104 965.615479,19.752029 
	C961.749268,22.043238 961.017090,25.146029 960.986877,28.659122 
	C960.924133,35.954865 962.458313,43.789181 960.297363,50.410404 
	C957.537964,58.865623 958.347534,67.081299 958.061462,75.422501 
	C957.987366,77.582764 959.217224,79.787750 959.848145,81.972198 
	C959.883240,82.145699 959.918396,82.319206 959.673096,82.999695 
	C957.942932,85.965218 955.637024,88.292053 955.234070,90.911598 
	C954.544495,95.394363 954.784851,100.082794 955.175293,104.638512 
	C955.333496,106.484573 956.909424,108.209122 957.840210,109.988968 
	C957.551941,112.393723 957.263611,114.798462 956.550232,117.669220 
	C952.760193,118.714226 952.054993,121.169716 952.054260,124.033463 
	C952.052734,130.337845 952.118958,136.642212 952.133728,142.946640 
	C952.136780,144.250748 952.458923,145.772720 951.917053,146.825058 
	C947.388428,155.619415 949.396240,164.965332 949.286499,174.152084 
	C949.248535,177.327606 948.891357,180.609543 948.000122,183.643188 
	C945.688599,191.511826 944.352783,199.276718 947.951782,207.328217 
	C947.952576,207.544937 947.961975,207.978287 947.951477,208.357224 
	C947.965210,209.492645 947.989380,210.249115 948.006470,211.253204 
	C947.999390,211.500793 947.996094,211.996185 947.977783,212.356079 
	C947.927673,213.196716 947.895874,213.677490 947.523804,214.206940 
	C946.178406,215.261719 944.575623,216.111038 944.263855,217.299057 
	C942.047485,225.746826 942.303284,234.094223 946.078369,242.142776 
	C946.038940,242.866989 945.999573,243.591187 945.713623,244.937363 
	C941.631836,249.308167 939.027100,253.576172 940.027588,259.219086 
	C940.900696,264.143951 941.899536,269.046509 942.842896,273.958923 
	C942.570679,276.358765 942.298462,278.758606 941.630127,281.555725 
	C940.049744,282.549774 937.935852,283.009796 937.824890,283.764374 
	C936.708313,291.356262 936.531250,298.930084 940.106384,306.072754 
	C940.063538,308.081909 940.020752,310.091064 939.556824,312.595886 
	C937.802063,315.352997 935.691711,317.490417 935.306396,319.903290 
	C934.631958,324.127106 935.103943,328.523529 934.929871,332.841003 
	C934.790527,336.297668 934.414612,339.745178 934.127380,343.195435 
	C933.486755,350.891144 932.767883,358.581787 932.284363,366.287201 
	C932.230042,367.153168 933.483154,368.101227 934.129883,369.011230 
	C934.079041,371.099640 934.028137,373.188049 933.555176,375.699921 
	C931.790100,377.975952 929.713257,379.670898 929.273621,381.717560 
	C928.590271,384.898682 928.731018,388.347565 929.054504,391.630554 
	C929.433472,395.476227 930.382568,399.265747 931.084412,403.079620 
	C931.050232,405.098114 931.016052,407.116638 930.545471,409.617065 
	C928.860718,411.015961 926.561157,411.897919 926.529236,412.855408 
	C926.258789,420.968018 924.272583,429.245026 928.078979,437.099426 
	C928.047485,437.818085 928.015991,438.536743 927.593262,439.731720 
	C926.071228,441.548004 924.161865,442.770325 923.938782,444.247375 
	C922.681396,452.573181 921.651550,460.969666 925.133911,469.097687 
	C925.090515,471.107513 925.047119,473.117310 924.603516,475.642517 
	C922.823425,478.605286 920.309326,481.044128 920.290649,483.501862 
	C920.246521,489.311249 921.389160,495.129578 922.035156,501.325775 
	C921.278015,503.327454 920.697449,505.046265 919.769348,506.550629 
	C915.950806,512.739746 916.045532,527.748291 920.033569,533.163208 
	C920.023193,534.528992 920.012817,535.894836 919.629883,537.807007 
	C915.206848,539.775146 913.853943,542.862000 914.018372,546.870667 
	C914.361511,555.238586 914.714233,563.606018 914.715454,572.112183 
	C913.664307,573.118103 912.427246,573.939026 912.347168,574.860596 
	C911.946228,579.473328 911.812500,584.111267 911.654358,588.742676 
	C911.496338,593.369141 911.685059,598.024963 911.225342,602.618164 
	C910.854797,606.320190 909.333496,609.916870 909.051941,613.615784 
	C908.535400,620.401794 908.800049,627.247437 908.274780,634.032288 
	C907.867798,639.288635 906.417725,644.464478 906.016235,649.720825 
	C904.832947,665.212158 903.950745,680.726257 902.909180,696.228760 
	C902.843750,697.202393 902.466614,698.166809 902.158142,699.110596 
	C898.694031,709.706543 899.073975,720.335938 901.847656,730.990479 
	C901.892944,731.427246 901.938293,731.863953 901.562683,732.693787 
	C899.818970,734.775940 897.438904,736.422241 897.368591,738.161865 
	C897.143433,743.734009 897.773560,749.340576 898.064331,755.354492 
	C898.413086,757.859192 898.771240,759.943237 899.129395,762.027344 
	C899.080322,762.466431 899.031250,762.905579 898.913574,763.669067 
	C897.420654,765.682434 895.630371,767.192200 894.687744,769.117065 
	C893.935120,770.653748 894.093811,772.693481 894.056152,774.514282 
	C893.828247,785.533264 891.714966,787.446045 880.627747,789.137207 
	C875.070984,789.984802 869.752197,792.349915 864.299805,793.939453 
	C860.710510,794.985840 857.075500,795.875610 853.459717,796.830750 
	C848.157837,798.231323 842.821838,799.515137 837.561951,801.058533 
	C832.527466,802.535645 827.631775,804.509338 822.564270,805.843994 
	C817.480713,807.182739 812.217651,807.830811 807.112915,809.101318 
	C802.863281,810.158997 798.730530,811.684998 794.542969,812.993713 
	C792.329407,813.685486 790.123474,814.407410 787.888977,815.024719 
	C784.112732,816.068115 780.291809,816.955017 776.534790,818.061096 
	C771.249512,819.617065 766.044067,821.453857 760.732483,822.907593 
	C755.913391,824.226562 750.981934,825.129944 746.134338,826.352356 
	C744.573547,826.745911 743.144836,827.636536 741.613159,828.179993 
	C740.128479,828.706665 738.590027,829.082336 737.073669,829.519348 
	C735.260498,830.041870 733.439941,830.539795 731.633606,831.084900 
	C730.278564,831.493835 728.951721,831.997498 727.593262,832.393494 
	C725.468140,833.012756 723.314148,833.535461 721.199219,834.185913 
	C720.438049,834.420044 719.748901,835.237122 719.035706,835.226013 
	C708.234863,835.056946 699.048584,840.894775 688.931763,843.240967 
	C683.678772,844.459229 678.401123,845.606323 673.216431,847.074463 
	C668.405334,848.436951 663.760742,850.396179 658.937317,851.703369 
	C653.735046,853.113159 648.392639,853.997131 643.144653,855.249817 
	C639.008118,856.237244 634.908997,857.390198 630.816467,858.551392 
	C624.388733,860.375305 617.940002,862.140564 611.574097,864.163391 
	C603.195251,866.825684 594.896912,869.740662 586.544250,872.486877 
	C584.214050,873.252991 581.814087,873.806885 579.178772,874.709595 
M576.533081,707.586243 
	C577.286133,707.724731 578.039246,707.863220 579.583740,707.943542 
	C580.367737,707.944031 581.151672,707.944458 582.477051,708.211609 
	C582.659851,708.295654 582.842590,708.379761 583.210083,709.219727 
	C583.472107,711.857910 583.956543,714.495605 583.962097,717.134338 
	C584.019531,744.629150 583.980469,772.124207 584.017456,799.619141 
	C584.025208,805.386780 584.906616,806.020325 590.534729,804.799316 
	C591.509277,804.587891 592.458801,804.262085 593.421326,803.994202 
	C607.830994,799.983521 622.231140,795.938171 636.653625,791.973999 
	C649.950745,788.319031 663.282410,784.789429 676.579834,781.135437 
	C691.015076,777.168823 705.416687,773.079834 719.854553,769.123047 
	C732.997681,765.521118 746.185974,762.083557 759.325745,758.469666 
	C782.885986,751.989685 806.387085,745.289673 830.002319,739.018494 
	C835.122986,737.658752 836.829468,735.265381 837.123901,730.049377 
	C837.929382,715.784546 839.420288,701.558533 840.632812,687.316528 
	C841.761353,674.061584 842.870178,660.805054 844.007690,647.550842 
	C845.173035,633.971375 846.350647,620.393005 847.545288,606.816040 
	C848.681396,593.903992 849.865234,580.996033 850.993835,568.083313 
	C852.195374,554.335205 853.271973,540.575684 854.556396,526.835510 
	C856.289307,508.297729 858.234680,489.779846 859.963379,471.241699 
	C861.243896,457.509796 862.303894,443.757416 863.500244,430.017487 
	C864.639648,416.932129 865.868896,403.854523 866.984558,390.767212 
	C868.198669,376.524597 869.268433,362.269531 870.511230,348.029541 
	C871.594727,335.613525 872.881653,323.215363 873.987000,310.801147 
	C875.240295,296.725555 876.357849,282.637970 877.595032,268.560913 
	C879.371094,248.351379 881.201050,228.146576 883.009949,207.939926 
	C884.225525,194.360306 885.412476,180.778015 886.671936,167.202454 
	C887.731750,155.779099 888.954224,144.370514 889.968201,132.943283 
	C891.584534,114.727623 892.970886,96.490852 894.697205,78.286026 
	C895.363525,71.259598 894.613647,70.024681 887.465515,70.023834 
	C788.650269,70.012199 689.835083,70.012650 591.019836,70.022583 
	C584.257080,70.023262 584.009338,70.283150 584.005310,77.103783 
	C583.989563,104.098831 584.027344,131.093964 583.954590,158.088821 
	C583.947083,160.883575 583.335510,163.676666 582.092834,166.711456 
	C581.095276,166.764374 580.097717,166.863556 579.100159,166.863632 
	C503.102020,166.869202 427.103882,166.869110 351.105743,166.849716 
	C349.618317,166.849335 348.130951,166.615372 346.585876,166.389343 
	C346.585876,166.389343 346.308838,166.503052 345.590698,166.823608 
	C345.075073,166.907242 344.559448,166.990875 343.442719,167.367676 
	C343.576355,170.391983 343.710022,173.416306 344.164246,177.319763 
	C345.584961,193.570297 347.007721,209.820648 348.425903,226.071411 
	C351.507965,261.387787 354.508575,296.711517 357.689545,332.018982 
	C361.228821,371.303528 364.946320,410.572052 368.548676,449.850952 
	C369.155579,456.468781 369.067932,456.491730 375.717102,456.492401 
	C442.493317,456.498962 509.269562,456.494110 576.045776,456.525848 
	C578.694275,456.527130 581.342651,456.862976 583.985413,457.974670 
	C583.989441,471.136627 583.996338,484.298553 583.996948,497.460510 
	C583.998474,531.781555 583.988586,566.102539 584.011353,600.423584 
	C584.013550,603.728027 584.143066,606.987549 578.785706,607.381348 
	C565.439514,603.858704 552.087830,600.356873 538.748474,596.808472 
	C518.985474,591.551270 499.251740,586.181763 479.452148,581.066711 
	C476.339386,580.262573 475.657623,578.649780 475.417297,575.835266 
	C473.560883,554.094055 471.555542,532.365662 469.644775,510.629028 
	C469.014679,503.461700 469.054749,503.431641 462.037323,503.433075 
	C435.704712,503.438538 409.372009,503.410614 383.039490,503.468719 
	C373.912262,503.488861 373.885834,501.656036 374.721893,512.333679 
	C378.337036,558.504883 382.151154,604.660522 385.767670,650.831665 
	C386.004761,653.858276 387.507080,654.678772 389.977142,655.358154 
	C411.776764,661.353149 433.547424,667.453491 455.339935,673.474487 
	C481.619812,680.735413 507.924072,687.908142 534.195374,695.199890 
	C548.266907,699.105469 562.291321,703.180481 576.533081,707.586243 
M264.866272,695.773804 
	C264.351013,695.546936 263.835785,695.320129 263.320526,695.093262 
	C263.320526,698.858765 263.320526,702.624268 263.320526,706.389771 
	C263.862061,706.401367 264.403625,706.412964 264.945160,706.424561 
	C264.945160,703.112000 264.945160,699.799438 264.866272,695.773804 
M258.974945,631.452820 
	C258.738007,630.793335 258.501099,630.133911 258.264160,629.474426 
	C258.044891,629.534241 257.825592,629.594055 257.606323,629.653870 
	C257.606323,633.558167 257.606323,637.462524 257.606323,641.366821 
	C258.074615,641.368164 258.542938,641.369446 259.011230,641.370789 
	C259.011230,638.320435 259.011230,635.270020 258.974945,631.452820 
z"/>
<path fill="#B54826" opacity="1.000000" stroke="none" 
	d="
M582.077942,9.023638 
	C459.805786,9.041595 337.533630,9.057136 215.261459,9.087173 
	C210.800110,9.088268 206.338806,9.231591 201.531708,9.154842 
	C202.000092,8.336308 202.789673,7.127681 203.632126,7.089635 
	C213.794876,6.630673 223.965424,6.344712 234.961700,6.248489 
	C245.510880,6.376193 255.232315,6.269072 264.953735,6.161951 
	C265.136230,6.123055 265.318695,6.084158 265.891724,6.105358 
	C266.282349,6.165454 266.623108,6.174553 266.623108,6.174553 
	C266.623108,6.174553 266.963074,6.118414 266.963074,6.118414 
	C275.013733,6.068476 283.064362,6.018538 291.951538,6.214788 
	C303.507904,6.362777 314.227783,6.264576 324.947632,6.166377 
	C325.725372,6.112816 326.503113,6.059255 327.781525,6.085153 
	C328.282196,6.164612 328.623016,6.173878 328.623016,6.173878 
	C328.623016,6.173878 328.963074,6.118414 328.963074,6.118414 
	C335.009186,6.066552 341.055298,6.014690 347.930298,6.217878 
	C359.825775,6.354761 370.892303,6.236593 381.958862,6.118425 
	C390.012268,6.068525 398.065674,6.018625 406.953735,6.219543 
	C418.511871,6.353051 429.235352,6.235742 439.958832,6.118434 
	C447.678955,6.068540 455.399048,6.018646 463.934631,6.214391 
	C467.823547,6.348785 470.897034,6.237539 473.970520,6.126294 
	C474.432983,6.076162 474.895416,6.026030 476.069336,6.224190 
	C483.840607,6.361287 490.900360,6.250092 497.960144,6.138897 
	C503.346954,6.093666 508.733734,6.048434 514.771362,6.166394 
	C515.934875,6.259164 516.447510,6.188743 516.960205,6.118324 
	C518.054138,6.068681 519.148132,6.019035 520.932190,6.201892 
	C523.070862,6.332145 524.519470,6.229895 525.968018,6.127646 
	C527.055603,6.074260 528.143250,6.020871 529.751282,6.058672 
	C530.271729,6.149861 530.620972,6.167750 530.620972,6.167750 
	C530.620972,6.167750 530.970703,6.115809 530.970703,6.115808 
	C532.709167,6.066227 534.447571,6.016645 536.982239,6.219346 
	C543.171753,6.365085 548.565002,6.258543 553.958313,6.152000 
	C556.358276,6.102203 558.758179,6.052406 561.719177,6.086191 
	C562.280212,6.169774 562.623962,6.179822 562.623962,6.179822 
	C562.623962,6.179822 562.965698,6.114829 562.965698,6.114829 
	C566.687378,6.065960 570.409119,6.017090 574.938599,6.212552 
	C577.871948,6.685364 579.997498,6.913846 582.108032,7.454885 
	C582.088013,8.186173 582.083008,8.604906 582.077942,9.023638 
z"/>
<path fill="#DA613F" opacity="1.000000" stroke="none" 
	d="
M901.913818,730.589600 
	C899.073975,720.335938 898.694031,709.706543 902.158142,699.110596 
	C902.466614,698.166809 902.843750,697.202393 902.909180,696.228760 
	C903.950745,680.726257 904.832947,665.212158 906.016235,649.720825 
	C906.417725,644.464478 907.867798,639.288635 908.274780,634.032288 
	C908.800049,627.247437 908.535400,620.401794 909.051941,613.615784 
	C909.333496,609.916870 910.854797,606.320190 911.225342,602.618164 
	C911.685059,598.024963 911.496338,593.369141 911.654358,588.742676 
	C911.812500,584.111267 911.946228,579.473328 912.347168,574.860596 
	C912.427246,573.939026 913.664307,573.118103 915.010132,572.121338 
	C916.047119,571.999023 916.441895,572.006104 916.836609,572.013245 
	C916.877380,572.178528 916.918152,572.343750 916.851318,572.877502 
	C916.676147,573.510742 916.711487,573.762207 916.849792,574.000488 
	C916.103271,582.273193 915.366882,590.546936 914.596375,598.817383 
	C914.506042,599.786499 914.119446,600.730591 914.051880,601.698914 
	C913.023560,616.438110 912.099426,631.184814 910.997192,645.918335 
	C910.128906,657.524353 909.098511,669.119019 908.052551,680.710754 
	C906.742310,695.232788 905.397949,709.752319 903.917786,724.257690 
	C903.711426,726.279602 902.647217,728.213928 901.913818,730.589600 
z"/>
<path fill="#D85936" opacity="1.000000" stroke="none" 
	d="
M269.969360,787.356934 
	C270.980774,785.983276 272.192444,784.919250 273.624420,783.661804 
	C279.735016,786.369080 285.927887,789.116455 292.127655,791.848267 
	C292.420410,791.977234 292.800873,792.077515 293.095886,792.006348 
	C300.449951,790.231445 306.144257,794.309265 312.180664,797.292969 
	C313.127014,797.760742 314.428650,797.565796 315.566711,797.574036 
	C316.720673,797.582336 317.975555,797.134399 319.014191,797.450928 
	C327.115997,799.919739 335.142853,802.637451 343.261414,805.047424 
	C348.473999,806.594666 353.828979,807.655762 359.072998,809.105225 
	C366.615723,811.190002 374.136597,813.362610 381.605652,815.693665 
	C382.474915,815.965027 382.956451,817.478760 383.796753,819.004639 
	C383.967896,819.779785 383.960022,819.966797 383.952148,820.153748 
	C377.438751,818.412292 370.928650,816.658386 364.411102,814.932678 
	C356.823181,812.923584 349.194031,811.061035 341.646423,808.911255 
	C333.309631,806.536804 325.075439,803.802002 316.738464,801.428101 
	C310.984161,799.789673 305.085876,798.655823 299.334717,797.007690 
	C293.364685,795.296814 287.494904,793.236389 281.580292,791.331848 
	C277.777649,790.107300 273.973267,788.888062 269.969360,787.356934 
z"/>
<path fill="#D1542E" opacity="1.000000" stroke="none" 
	d="
M582.123047,7.142328 
	C579.997498,6.913846 577.871948,6.685364 575.398010,6.285866 
	C624.193420,6.074811 673.337219,6.012542 722.481018,5.999794 
	C801.946655,5.979181 881.412231,5.988279 960.877869,5.994706 
	C967.258057,5.995222 968.072998,7.004403 965.482666,12.025288 
	C964.534729,11.238344 963.984619,10.392564 963.034058,8.979755 
	C959.926758,7.948825 957.220215,7.082632 954.512817,7.079757 
	C883.533508,7.004374 812.554077,7.002341 741.574707,7.022380 
	C688.424133,7.037385 635.273621,7.100587 582.123047,7.142328 
z"/>
<path fill="#D95736" opacity="1.000000" stroke="none" 
	d="
M432.008545,829.999084 
	C438.589661,831.722473 445.182526,833.402588 451.746918,835.187317 
	C455.062469,836.088806 458.348969,837.112549 461.608521,838.200928 
	C466.554901,839.852478 471.412445,841.791504 476.409027,843.264893 
	C480.793823,844.557922 485.366852,845.205872 489.768066,846.451843 
	C495.155670,847.976929 500.439484,849.865173 505.793915,851.512756 
	C507.153168,851.931091 508.612793,852.017700 510.021240,852.283447 
	C511.612610,852.583740 513.220886,852.830688 514.780945,853.252136 
	C516.862244,853.814392 518.987122,854.338562 520.939636,855.219543 
	C522.905212,856.106506 524.682617,857.410522 526.769653,858.802612 
	C526.970581,859.547302 526.944458,860.021118 526.897217,860.850342 
	C521.017151,859.516968 515.174866,857.767334 509.295258,856.153381 
	C500.456604,853.727234 491.561920,851.501038 482.749115,848.986450 
	C477.220978,847.409119 471.832184,845.347778 466.319427,843.710571 
	C461.635834,842.319641 456.836273,841.322693 452.138275,839.976013 
	C445.154816,837.974365 438.215698,835.817932 431.273071,833.106934 
	C431.528473,831.657410 431.768494,830.828247 432.008545,829.999084 
z"/>
<path fill="#D96140" opacity="1.000000" stroke="none" 
	d="
M947.950928,207.111481 
	C944.352783,199.276718 945.688599,191.511826 948.000122,183.643188 
	C948.891357,180.609543 949.248535,177.327606 949.286499,174.152084 
	C949.396240,164.965332 947.388428,155.619415 951.917053,146.825058 
	C952.458923,145.772720 952.136780,144.250748 952.133728,142.946640 
	C952.118958,136.642212 952.052734,130.337845 952.054260,124.033463 
	C952.054993,121.169716 952.760193,118.714226 956.489136,118.087585 
	C956.564209,126.425629 956.513367,134.828003 955.926697,143.192795 
	C955.185974,153.752625 955.138123,164.557922 952.651123,174.734283 
	C950.761658,182.465744 951.848267,189.995804 950.140198,197.988068 
	C948.966003,201.329788 948.458496,204.220627 947.950928,207.111481 
z"/>
<path fill="#DC4117" opacity="1.000000" stroke="none" 
	d="
M237.100403,420.465210 
	C238.120407,421.528687 239.701218,422.968658 239.908737,424.584930 
	C241.067749,433.612915 242.021667,442.672607 242.799118,451.742615 
	C243.571655,460.755280 244.036423,469.794037 244.667267,478.819214 
	C245.069778,484.577606 245.528839,490.332031 245.794998,496.843414 
	C245.134415,499.054565 244.641403,500.510529 244.148376,501.966522 
	C242.757370,484.964020 242.126587,467.851501 239.688950,451.000427 
	C238.236786,440.961884 236.948776,431.039215 237.100403,420.465210 
z"/>
<path fill="#D6441C" opacity="1.000000" stroke="none" 
	d="
M244.081757,502.429932 
	C244.641403,500.510529 245.134415,499.054565 245.785248,497.310547 
	C246.621460,499.099823 248.046936,501.249878 247.852921,503.242249 
	C246.845993,513.581909 249.545776,523.523682 250.572891,533.639771 
	C251.199829,539.814514 251.916870,546.029785 251.802505,552.212280 
	C251.728943,556.188477 250.218964,560.138062 249.233551,564.350708 
	C248.719849,563.356873 248.034592,562.125183 247.977554,560.864929 
	C247.573120,551.927246 247.474167,542.972717 246.918549,534.045898 
	C246.546387,528.066406 245.499756,522.131836 244.914017,516.161560 
	C244.481369,511.751892 244.305435,507.317017 244.081757,502.429932 
z"/>
<path fill="#D96443" opacity="1.000000" stroke="none" 
	d="
M960.035522,81.623001 
	C959.217224,79.787750 957.987366,77.582764 958.061462,75.422501 
	C958.347534,67.081299 957.537964,58.865623 960.297363,50.410404 
	C962.458313,43.789181 960.924133,35.954865 960.986877,28.659122 
	C961.017090,25.146029 961.749268,22.043238 965.548767,20.161667 
	C964.961304,29.881598 964.001221,39.765038 963.226135,49.662968 
	C962.929321,53.453938 963.325989,57.306522 962.928650,61.080708 
	C962.217834,67.831863 961.144653,74.544861 960.035522,81.623001 
z"/>
<path fill="#D7603D" opacity="1.000000" stroke="none" 
	d="
M934.349365,368.940704 
	C933.483154,368.101227 932.230042,367.153168 932.284363,366.287201 
	C932.767883,358.581787 933.486755,350.891144 934.127380,343.195435 
	C934.414612,339.745178 934.790527,336.297668 934.929871,332.841003 
	C935.103943,328.523529 934.631958,324.127106 935.306396,319.903290 
	C935.691711,317.490417 937.802063,315.352997 939.492798,313.022186 
	C938.984741,322.153809 938.105835,331.353516 937.266479,340.556824 
	C937.102112,342.359039 937.114685,344.176605 937.004944,345.984619 
	C936.658203,351.695831 936.292114,357.405853 935.615295,363.713928 
	C935.135071,365.561096 934.973145,366.810638 934.811279,368.060181 
	C934.967102,368.401093 934.886292,368.671112 934.349365,368.940704 
z"/>
<path fill="#D85C3A" opacity="1.000000" stroke="none" 
	d="
M431.577484,829.984619 
	C431.768494,830.828247 431.528473,831.657410 431.111023,832.760132 
	C425.324219,831.717651 419.677124,830.542603 414.113739,829.054626 
	C404.165588,826.393921 394.267883,823.544495 384.150635,820.463867 
	C383.960022,819.966797 383.967896,819.779785 383.986267,819.312744 
	C387.469208,819.276794 391.025970,819.130371 394.393982,819.857788 
	C399.311981,820.919983 404.115509,822.542603 408.929016,824.050171 
	C414.391724,825.761108 419.781158,827.711365 425.267090,829.339661 
	C427.125549,829.891296 429.181000,829.779053 431.577484,829.984619 
z"/>
<path fill="#D7593A" opacity="1.000000" stroke="none" 
	d="
M916.897095,571.574463 
	C916.441895,572.006104 916.047119,571.999023 915.357666,571.982788 
	C914.714233,563.606018 914.361511,555.238586 914.018372,546.870667 
	C913.853943,542.862000 915.206848,539.775146 919.570251,538.212646 
	C919.052917,547.466064 918.222778,556.860168 917.392151,566.254272 
	C917.248291,567.881470 917.102478,569.508545 916.897095,571.574463 
z"/>
<path fill="#D96140" opacity="1.000000" stroke="none" 
	d="
M920.392761,532.910522 
	C916.045532,527.748291 915.950806,512.739746 919.769348,506.550629 
	C920.697449,505.046265 921.278015,503.327454 922.256470,501.337891 
	C922.494629,500.968506 922.937805,500.999207 922.937744,500.999207 
	C922.209167,511.552094 921.480530,522.104980 920.392761,532.910522 
z"/>
<path fill="#D95D3E" opacity="1.000000" stroke="none" 
	d="
M925.445679,468.928558 
	C921.651550,460.969666 922.681396,452.573181 923.938782,444.247375 
	C924.161865,442.770325 926.071228,441.548004 927.528259,440.085571 
	C928.202698,449.638153 928.612732,459.317688 925.445679,468.928558 
z"/>
<path fill="#D7593A" opacity="1.000000" stroke="none" 
	d="
M943.057007,273.596466 
	C941.899536,269.046509 940.900696,264.143951 940.027588,259.219086 
	C939.027100,253.576172 941.631836,249.308167 945.671692,245.297760 
	C945.007935,254.435455 944.139587,263.834747 943.057007,273.596466 
z"/>
<path fill="#D85C3A" opacity="1.000000" stroke="none" 
	d="
M946.440186,241.887238 
	C942.303284,234.094223 942.047485,225.746826 944.263855,217.299057 
	C944.575623,216.111038 946.178406,215.261719 947.585327,214.475433 
	C948.276306,215.354691 948.565491,216.014145 948.854614,216.673615 
	C948.170410,224.992981 947.486206,233.312347 946.440186,241.887238 
z"/>
<path fill="#D95D3E" opacity="1.000000" stroke="none" 
	d="
M928.413452,436.873474 
	C924.272583,429.245026 926.258789,420.968018 926.529236,412.855408 
	C926.561157,411.897919 928.860718,411.015961 930.479736,410.045258 
	C930.149597,418.876831 929.448792,427.762177 928.413452,436.873474 
z"/>
<path fill="#D7603D" opacity="1.000000" stroke="none" 
	d="
M931.419556,402.856049 
	C930.382568,399.265747 929.433472,395.476227 929.054504,391.630554 
	C928.731018,388.347565 928.590271,384.898682 929.273621,381.717560 
	C929.713257,379.670898 931.790100,377.975952 933.491455,376.067627 
	C933.151428,384.885376 932.453125,393.758942 931.419556,402.856049 
z"/>
<path fill="#D85C3A" opacity="1.000000" stroke="none" 
	d="
M957.928955,109.574356 
	C956.909424,108.209122 955.333496,106.484573 955.175293,104.638512 
	C954.784851,100.082794 954.544495,95.394363 955.234070,90.911598 
	C955.637024,88.292053 957.942932,85.965218 959.624268,83.260712 
	C959.243164,91.729736 958.630371,100.444740 957.928955,109.574356 
z"/>
<path fill="#D1542E" opacity="1.000000" stroke="none" 
	d="
M940.456177,305.815521 
	C936.531250,298.930084 936.708313,291.356262 937.824890,283.764374 
	C937.935852,283.009796 940.049744,282.549774 941.557251,281.956726 
	C942.229553,283.674286 942.994568,285.423187 942.853516,287.095734 
	C942.333252,293.263611 941.513245,299.406189 940.456177,305.815521 
z"/>
<path fill="#D7593A" opacity="1.000000" stroke="none" 
	d="
M923.135681,500.620697 
	C922.937805,500.999207 922.494629,500.968506 922.273315,500.956421 
	C921.389160,495.129578 920.246521,489.311249 920.290649,483.501862 
	C920.309326,481.044128 922.823425,478.605286 924.541870,476.069702 
	C924.364868,484.068451 923.849182,492.155304 923.135681,500.620697 
z"/>
<path fill="#DA613F" opacity="1.000000" stroke="none" 
	d="
M898.073608,754.933899 
	C897.773560,749.340576 897.143433,743.734009 897.368591,738.161865 
	C897.438904,736.422241 899.818970,734.775940 901.500244,733.018677 
	C901.556946,737.689453 901.255066,742.428406 900.606323,747.792480 
	C899.530823,750.589722 898.802185,752.761841 898.073608,754.933899 
z"/>
<path fill="#CF5739" opacity="1.000000" stroke="none" 
	d="
M267.083527,762.325867 
	C268.032013,760.853577 268.914093,759.714417 270.373077,757.830200 
	C271.818329,766.250977 270.789490,773.839783 268.347351,781.685547 
	C267.776947,776.634949 267.396301,771.264893 267.122559,765.316101 
	C267.276703,764.487671 267.251923,764.243225 267.155090,764.003967 
	C267.109100,763.555664 267.063110,763.107300 267.083527,762.325867 
z"/>
<path fill="#D65127" opacity="1.000000" stroke="none" 
	d="
M381.495056,6.071069 
	C370.892303,6.236593 359.825775,6.354761 348.397003,6.281929 
	C359.033600,6.068524 370.032410,6.046119 381.495056,6.071069 
z"/>
<path fill="#D65127" opacity="1.000000" stroke="none" 
	d="
M439.494415,6.078484 
	C429.235352,6.235742 418.511871,6.353051 407.420502,6.294320 
	C417.711731,6.091699 428.370880,6.065116 439.494415,6.078484 
z"/>
<path fill="#D65127" opacity="1.000000" stroke="none" 
	d="
M324.484802,6.113881 
	C314.227783,6.264576 303.507904,6.362777 292.418030,6.289364 
	C302.705994,6.098962 313.363983,6.080174 324.484802,6.113881 
z"/>
<path fill="#DA6140" opacity="1.000000" stroke="none" 
	d="
M898.064331,755.354492 
	C898.802185,752.761841 899.530823,750.589722 900.533203,748.216553 
	C900.464966,752.536499 900.122986,757.057495 899.455200,761.802917 
	C898.771240,759.943237 898.413086,757.859192 898.064331,755.354492 
z"/>
<path fill="#D65127" opacity="1.000000" stroke="none" 
	d="
M264.490845,6.105406 
	C255.232315,6.269072 245.510880,6.376193 235.419693,6.310907 
	C244.709274,6.108621 254.368607,6.078741 264.490845,6.105406 
z"/>
<path fill="#DC4117" opacity="1.000000" stroke="none" 
	d="
M211.980927,139.524872 
	C211.976944,136.273163 211.976944,133.411011 211.976944,130.548874 
	C212.760635,130.598190 213.544312,130.647522 214.328003,130.696838 
	C213.803986,134.651459 213.279968,138.606094 212.460968,142.791855 
	C212.105621,141.986816 212.045258,140.950623 211.980927,139.524872 
z"/>
<path fill="#D65127" opacity="1.000000" stroke="none" 
	d="
M497.497009,6.081470 
	C490.900360,6.250092 483.840607,6.361287 476.413116,6.294151 
	C483.041565,6.085228 490.037750,6.054636 497.497009,6.081470 
z"/>
<path fill="#D85C3A" opacity="1.000000" stroke="none" 
	d="
M947.951782,207.328217 
	C948.458496,204.220627 948.966003,201.329788 949.792175,198.244675 
	C950.065857,201.058578 950.020874,204.066742 949.603516,207.527267 
	C948.808105,207.979172 948.385071,207.978729 947.961975,207.978287 
	C947.961975,207.978287 947.952576,207.544937 947.951782,207.328217 
z"/>
<path fill="#D65127" opacity="1.000000" stroke="none" 
	d="
M553.496399,6.093419 
	C548.565002,6.258543 543.171753,6.365085 537.411560,6.293725 
	C542.374634,6.088828 547.704529,6.061833 553.496399,6.093419 
z"/>
<path fill="#D65127" opacity="1.000000" stroke="none" 
	d="
M473.521179,6.081240 
	C470.897034,6.237539 467.823547,6.348785 464.401367,6.289186 
	C467.059052,6.090956 470.065430,6.063571 473.521179,6.081240 
z"/>
<path fill="#E34F27" opacity="1.000000" stroke="none" 
	d="
M934.967407,367.724854 
	C934.973145,366.810638 935.135071,365.561096 935.550354,364.157104 
	C935.576965,365.131622 935.350220,366.260590 934.967407,367.724854 
z"/>
<path fill="#D96140" opacity="1.000000" stroke="none" 
	d="
M948.938049,216.299408 
	C948.565491,216.014145 948.276306,215.354691 947.925659,214.426758 
	C947.895874,213.677490 947.927673,213.196716 948.186646,212.357086 
	C948.413696,211.998199 948.830505,211.999054 948.830566,211.999054 
	C948.894165,213.307770 948.957825,214.616486 948.938049,216.299408 
z"/>
<path fill="#D96140" opacity="1.000000" stroke="none" 
	d="
M947.951477,208.357224 
	C948.385071,207.978729 948.808105,207.979172 949.547668,207.975525 
	C949.643494,208.775055 949.422913,209.578705 948.837769,210.692719 
	C948.473206,211.003067 948.013550,211.005600 948.013550,211.005600 
	C947.989380,210.249115 947.965210,209.492645 947.951477,208.357224 
z"/>
<path fill="#D65127" opacity="1.000000" stroke="none" 
	d="
M525.560120,6.077310 
	C524.519470,6.229895 523.070862,6.332145 521.337463,6.276368 
	C522.419128,6.087885 523.785706,6.057430 525.560120,6.077310 
z"/>
<path fill="#D65127" opacity="1.000000" stroke="none" 
	d="
M516.643127,6.073205 
	C516.447510,6.188743 515.934875,6.259164 515.238159,6.234581 
	C515.478088,6.102413 515.902100,6.065251 516.643127,6.073205 
z"/>
<path fill="#D65127" opacity="1.000000" stroke="none" 
	d="
M530.737305,6.079009 
	C530.970703,6.115809 530.620972,6.167750 530.620972,6.167750 
	C530.620972,6.167750 530.271729,6.149861 530.154358,6.132835 
	C530.036987,6.115808 530.503845,6.042208 530.737305,6.079009 
z"/>
<path fill="#D85C3A" opacity="1.000000" stroke="none" 
	d="
M948.006470,211.253204 
	C948.013550,211.005600 948.473206,211.003067 948.702637,211.000916 
	C948.958130,211.169830 948.984131,211.340881 948.920288,211.755493 
	C948.830505,211.999054 948.413696,211.998199 948.204895,211.997192 
	C947.996094,211.996185 947.999390,211.500793 948.006470,211.253204 
z"/>
<path fill="#E34F27" opacity="1.000000" stroke="none" 
	d="
M267.107147,764.247803 
	C267.251923,764.243225 267.276703,764.487671 267.194702,764.857788 
	C267.159943,764.978271 267.059204,764.491577 267.107147,764.247803 
z"/>
<path fill="#D65127" opacity="1.000000" stroke="none" 
	d="
M328.734436,6.083608 
	C328.963074,6.118414 328.623016,6.173878 328.623016,6.173878 
	C328.623016,6.173878 328.282196,6.164612 328.167297,6.152454 
	C328.052368,6.140296 328.505798,6.048801 328.734436,6.083608 
z"/>
<path fill="#D1542E" opacity="1.000000" stroke="none" 
	d="
M562.735596,6.079593 
	C562.965698,6.114829 562.623962,6.179822 562.623962,6.179822 
	C562.623962,6.179822 562.280212,6.169774 562.164795,6.153249 
	C562.049316,6.136724 562.505554,6.044356 562.735596,6.079593 
z"/>
<path fill="#D7593A" opacity="1.000000" stroke="none" 
	d="
M916.904602,573.752930 
	C916.711487,573.762207 916.676147,573.510742 916.799927,573.127502 
	C916.890564,573.174377 916.924988,573.339905 916.904602,573.752930 
z"/>
<path fill="#D65127" opacity="1.000000" stroke="none" 
	d="
M266.734436,6.083671 
	C266.963074,6.118414 266.623108,6.174553 266.623108,6.174553 
	C266.623108,6.174553 266.282349,6.165454 266.167450,6.153210 
	C266.052551,6.140965 266.505798,6.048926 266.734436,6.083671 
z"/>
<path fill="#EF662C" opacity="1.000000" stroke="none" 
	d="
M583.004272,166.470520 
	C583.335510,163.676666 583.947083,160.883575 583.954590,158.088821 
	C584.027344,131.093964 583.989563,104.098831 584.005310,77.103783 
	C584.009338,70.283150 584.257080,70.023262 591.019836,70.022583 
	C689.835083,70.012650 788.650269,70.012199 887.465515,70.023834 
	C894.613647,70.024681 895.363525,71.259598 894.697205,78.286026 
	C892.970886,96.490852 891.584534,114.727623 889.968201,132.943283 
	C888.954224,144.370514 887.731750,155.779099 886.671936,167.202454 
	C885.412476,180.778015 884.225525,194.360306 883.009949,207.939926 
	C881.201050,228.146576 879.371094,248.351379 877.595032,268.560913 
	C876.357849,282.637970 875.240295,296.725555 873.987000,310.801147 
	C872.881653,323.215363 871.594727,335.613525 870.511230,348.029541 
	C869.268433,362.269531 868.198669,376.524597 866.984558,390.767212 
	C865.868896,403.854523 864.639648,416.932129 863.500244,430.017487 
	C862.303894,443.757416 861.243896,457.509796 859.963379,471.241699 
	C858.234680,489.779846 856.289307,508.297729 854.556396,526.835510 
	C853.271973,540.575684 852.195374,554.335205 850.993835,568.083313 
	C849.865234,580.996033 848.681396,593.903992 847.545288,606.816040 
	C846.350647,620.393005 845.173035,633.971375 844.007690,647.550842 
	C842.870178,660.805054 841.761353,674.061584 840.632812,687.316528 
	C839.420288,701.558533 837.929382,715.784546 837.123901,730.049377 
	C836.829468,735.265381 835.122986,737.658752 830.002319,739.018494 
	C806.387085,745.289673 782.885986,751.989685 759.325745,758.469666 
	C746.185974,762.083557 732.997681,765.521118 719.854553,769.123047 
	C705.416687,773.079834 691.015076,777.168823 676.579834,781.135437 
	C663.282410,784.789429 649.950745,788.319031 636.653625,791.973999 
	C622.231140,795.938171 607.830994,799.983521 593.421326,803.994202 
	C592.458801,804.262085 591.509277,804.587891 590.534729,804.799316 
	C584.906616,806.020325 584.025208,805.386780 584.017456,799.619141 
	C583.980469,772.124207 584.019531,744.629150 583.962097,717.134338 
	C583.956543,714.495605 583.472107,711.857910 583.085815,708.715820 
	C582.961548,708.211853 583.020386,707.958496 583.398926,708.042786 
	C586.106506,707.274414 588.435547,706.421753 591.147888,705.572754 
	C617.678955,698.449768 643.829285,691.332764 669.973389,684.192993 
	C686.502563,679.679077 703.025696,675.142700 719.545715,670.595459 
	C737.820007,665.565369 756.082520,660.492676 774.363525,655.487366 
	C777.208252,654.708618 778.743164,653.474243 779.013794,650.093994 
	C780.954224,625.858398 783.137268,601.641968 785.276489,577.422363 
	C789.438904,530.299866 793.651611,483.181702 797.771362,436.055450 
	C798.509949,427.605896 798.901062,419.125916 799.700134,410.337219 
	C800.209961,406.305267 800.472229,402.596100 800.880249,398.598358 
	C800.973938,397.888519 800.921814,397.467285 801.119324,396.742188 
	C801.469360,394.611450 801.569763,392.784546 801.771423,390.524323 
	C801.998047,387.158630 802.123474,384.226257 802.479126,380.981659 
	C803.334839,376.106049 803.960266,371.542664 804.688110,366.565369 
	C804.791260,364.739685 804.791992,363.327881 804.842896,361.549316 
	C803.883850,360.842377 802.874573,360.502167 801.531494,360.038055 
	C800.506042,360.012024 799.814453,360.109894 798.729675,360.062866 
	C797.521973,360.026367 796.707520,360.134827 795.449646,360.102783 
	C794.175293,359.910950 793.344360,359.814728 792.513367,359.814636 
	C723.869385,359.807343 655.225342,359.805542 586.581360,359.823639 
	C585.431396,359.823944 584.281433,360.071411 582.672913,360.062653 
	C542.464905,359.913544 502.715332,359.928131 462.966095,359.826599 
	C461.069763,359.821777 459.176086,358.789703 457.632080,358.255798 
	C461.966461,358.192200 465.949921,358.038574 469.933441,358.036438 
	C505.384796,358.017395 540.836182,358.029907 576.287537,358.021301 
	C583.943970,358.019440 583.991638,357.964325 583.993835,350.138367 
	C584.001282,323.508240 584.004517,296.878113 583.992554,270.247986 
	C583.989380,263.177307 583.795166,262.984894 576.678162,262.983307 
	C536.566528,262.974304 496.454926,262.967957 456.343323,263.008850 
	C454.035187,263.011200 451.727539,263.437439 449.431946,263.273865 
	C451.767609,262.423859 454.091064,261.567383 456.414368,261.567810 
	C504.380402,261.576904 552.346436,261.728516 600.312500,261.759949 
	C669.268066,261.805176 738.223572,261.790710 807.179077,261.714355 
	C809.269592,261.712067 811.359070,260.736237 813.644592,260.031036 
	C813.815979,259.509827 813.791748,259.171875 814.008911,258.513672 
	C814.803528,251.450485 815.356873,244.707535 816.057678,237.555573 
	C816.971802,230.073090 817.895691,223.012436 818.473022,215.923553 
	C819.748169,200.267838 820.848938,184.597900 822.026123,168.499359 
	C819.720886,167.611115 817.410583,166.762604 815.099609,166.760727 
	C743.219788,166.702499 671.339844,166.732834 599.459961,166.726990 
	C593.974731,166.726547 588.489441,166.559906 583.004272,166.470520 
z"/>
<path fill="#ECEAE9" opacity="1.000000" stroke="none" 
	d="
M813.449036,260.214264 
	C811.359070,260.736237 809.269592,261.712067 807.179077,261.714355 
	C738.223572,261.790710 669.268066,261.805176 600.312500,261.759949 
	C552.346436,261.728516 504.380402,261.576904 456.414368,261.567810 
	C454.091064,261.567383 451.767609,262.423859 449.300201,263.712402 
	C450.921509,286.211212 452.638550,307.882965 454.474457,329.544678 
	C455.285858,339.118988 456.338196,348.672852 457.281158,358.235992 
	C459.176086,358.789703 461.069763,359.821777 462.966095,359.826599 
	C502.715332,359.928131 542.464905,359.913544 582.564697,360.456360 
	C582.618958,363.452240 582.070984,365.912872 582.065369,368.374786 
	C582.004822,394.658264 582.023376,420.941986 582.036438,447.225616 
	C582.040100,454.544250 582.376282,454.898224 589.579895,454.901520 
	C622.850342,454.916779 656.120728,454.886078 689.391174,454.922546 
	C702.342224,454.936737 701.533142,453.826080 700.945129,466.715942 
	C700.725403,471.531799 699.264954,476.291046 698.291016,480.641815 
	C698.737244,475.073334 699.209229,469.932953 699.800842,464.806396 
	C700.730896,456.746735 700.765076,456.692291 692.892639,456.684906 
	C658.244568,456.652374 623.596558,456.650940 588.948486,456.664062 
	C587.295959,456.664673 585.643555,456.911011 583.991089,457.042938 
	C581.342651,456.862976 578.694275,456.527130 576.045776,456.525848 
	C509.269562,456.494110 442.493317,456.498962 375.717102,456.492401 
	C369.067932,456.491730 369.155579,456.468781 368.548676,449.850952 
	C364.946320,410.572052 361.228821,371.303528 357.689545,332.018982 
	C354.508575,296.711517 351.507965,261.387787 348.425903,226.071411 
	C347.007721,209.820648 345.584961,193.570297 344.135559,176.514923 
	C344.085876,172.831558 344.064850,169.953033 344.043823,167.074524 
	C344.559448,166.990875 345.075073,166.907242 346.035339,166.749420 
	C346.479980,166.675217 346.643555,166.490372 346.643555,166.490372 
	C348.130951,166.615372 349.618317,166.849335 351.105743,166.849716 
	C427.103882,166.869110 503.102020,166.869202 579.100159,166.863632 
	C580.097717,166.863556 581.095276,166.764374 582.548523,166.590988 
	C588.489441,166.559906 593.974731,166.726547 599.459961,166.726990 
	C671.339844,166.732834 743.219788,166.702499 815.099609,166.760727 
	C817.410583,166.762604 819.720886,167.611115 821.607666,168.468063 
	C813.722961,168.899536 806.261963,168.951752 798.801025,168.952560 
	C730.168152,168.960022 661.535339,168.958923 592.902466,168.957016 
	C591.570129,168.956970 590.234680,168.967545 588.906006,168.886536 
	C582.132080,168.473633 582.036926,168.526230 582.033447,175.499924 
	C582.020813,200.987366 582.028442,226.474808 582.032532,251.962250 
	C582.033813,259.981354 582.039734,259.988129 590.069397,259.988434 
	C661.201050,259.990875 732.332642,259.987762 803.464294,260.000885 
	C806.792542,260.001495 810.120789,260.139984 813.449036,260.214264 
z"/>
<path fill="#FFFEFE" opacity="1.000000" stroke="none" 
	d="
M698.370239,481.076111 
	C699.264954,476.291046 700.725403,471.531799 700.945129,466.715942 
	C701.533142,453.826080 702.342224,454.936737 689.391174,454.922546 
	C656.120728,454.886078 622.850342,454.916779 589.579895,454.901520 
	C582.376282,454.898224 582.040100,454.544250 582.036438,447.225616 
	C582.023376,420.941986 582.004822,394.658264 582.065369,368.374786 
	C582.070984,365.912872 582.618958,363.452240 583.023254,360.597290 
	C584.281433,360.071411 585.431396,359.823944 586.581360,359.823639 
	C655.225342,359.805542 723.869385,359.807343 792.513367,359.814636 
	C793.344360,359.814728 794.175293,359.910950 795.580627,360.342896 
	C797.144287,360.551575 798.133545,360.379669 799.122864,360.207764 
	C799.814453,360.109894 800.506042,360.012024 801.679321,360.304382 
	C803.038269,361.101776 803.915527,361.508911 804.792725,361.916046 
	C804.791992,363.327881 804.791260,364.739685 804.409180,366.777649 
	C803.434814,372.033813 802.841797,376.663818 802.248840,381.293854 
	C802.123474,384.226257 801.998047,387.158630 801.501221,390.713135 
	C801.043091,393.238800 800.956360,395.142426 800.869629,397.046021 
	C800.921814,397.467285 800.973938,397.888519 800.583252,398.836487 
	C799.911133,403.128784 799.681885,406.894409 799.452576,410.660004 
	C798.901062,419.125916 798.509949,427.605896 797.771362,436.055450 
	C793.651611,483.181702 789.438904,530.299866 785.276489,577.422363 
	C783.137268,601.641968 780.954224,625.858398 779.013794,650.093994 
	C778.743164,653.474243 777.208252,654.708618 774.363525,655.487366 
	C756.082520,660.492676 737.820007,665.565369 719.545715,670.595459 
	C703.025696,675.142700 686.502563,679.679077 669.973389,684.192993 
	C643.829285,691.332764 617.678955,698.449768 590.743896,705.498047 
	C587.644470,706.265991 585.332458,707.112244 583.020386,707.958496 
	C583.020386,707.958496 582.961548,708.211853 582.993469,708.337830 
	C582.842590,708.379761 582.659851,708.295654 582.252075,707.687622 
	C582.160217,705.676758 582.414551,704.189514 582.408752,702.703247 
	C582.298889,674.483582 582.249084,646.263000 581.933899,618.045471 
	C581.882019,613.401917 582.433289,609.613342 587.394287,607.317383 
	C588.622192,607.131042 589.450317,607.067078 590.609802,607.030640 
	C591.953735,606.635132 592.966309,606.212219 593.951538,605.852478 
	C593.924194,605.915710 593.797913,605.860413 594.034363,605.838135 
	C594.589294,605.730652 594.850586,605.558533 595.376709,605.075500 
	C597.504150,604.567139 599.309570,604.282776 601.374268,604.145752 
	C604.096130,603.405212 606.558655,602.517456 609.383301,601.466125 
	C610.530151,601.205994 611.314819,601.109497 612.351562,601.159668 
	C614.427124,600.555786 616.250549,599.805237 618.400269,598.891907 
	C620.161987,598.463501 621.597412,598.197815 623.296570,598.109985 
	C625.382263,597.555176 627.204224,596.822510 629.375000,595.934387 
	C631.804443,595.228882 633.881653,594.665039 635.966492,594.131226 
	C645.554993,591.675842 655.145630,589.228821 665.120728,586.846436 
	C667.690613,586.089722 669.875305,585.265381 672.420654,584.295288 
	C673.553833,584.096741 674.326294,584.043823 675.364136,584.131714 
	C678.111389,583.336060 680.593323,582.399780 683.462769,581.342590 
	C684.925476,581.119202 686.000549,581.016724 687.262573,581.060181 
	C688.039124,580.495300 688.628845,579.784424 689.206238,578.640320 
	C689.346741,576.488098 689.499634,574.769104 689.897949,572.808044 
	C690.750854,566.083435 691.358215,559.600952 691.896240,552.656860 
	C692.091858,548.819214 692.356750,545.443115 692.876953,541.840088 
	C693.755371,534.783813 694.378479,527.954468 694.937866,520.671509 
	C695.063904,517.496826 695.253662,514.775696 695.721191,511.821716 
	C696.636230,504.760498 697.273376,497.932190 697.837402,490.648315 
	C697.966309,487.153839 698.168274,484.114990 698.370239,481.076111 
z"/>
<path fill="#EBE9E9" opacity="1.000000" stroke="none" 
	d="
M586.994568,607.439819 
	C582.433289,609.613342 581.882019,613.401917 581.933899,618.045471 
	C582.249084,646.263000 582.298889,674.483582 582.408752,702.703247 
	C582.414551,704.189514 582.160217,705.676758 581.981323,707.554260 
	C581.151672,707.944458 580.367737,707.944031 579.032349,707.738281 
	C577.766296,707.414978 577.051636,707.296997 576.337036,707.179077 
	C562.291321,703.180481 548.266907,699.105469 534.195374,695.199890 
	C507.924072,687.908142 481.619812,680.735413 455.339935,673.474487 
	C433.547424,667.453491 411.776764,661.353149 389.977142,655.358154 
	C387.507080,654.678772 386.004761,653.858276 385.767670,650.831665 
	C382.151154,604.660522 378.337036,558.504883 374.721893,512.333679 
	C373.885834,501.656036 373.912262,503.488861 383.039490,503.468719 
	C409.372009,503.410614 435.704712,503.438538 462.037323,503.433075 
	C469.054749,503.431641 469.014679,503.461700 469.644775,510.629028 
	C471.555542,532.365662 473.560883,554.094055 475.417297,575.835266 
	C475.657623,578.649780 476.339386,580.262573 479.452148,581.066711 
	C499.251740,586.181763 518.985474,591.551270 538.748474,596.808472 
	C552.087830,600.356873 565.439514,603.858704 579.486389,607.570923 
	C582.456238,607.653564 584.725403,607.546692 586.994568,607.439819 
z"/>
<path fill="#F0662B" opacity="1.000000" stroke="none" 
	d="
M587.394287,607.317383 
	C584.725403,607.546692 582.456238,607.653564 579.883179,607.521973 
	C584.143066,606.987549 584.013550,603.728027 584.011353,600.423584 
	C583.988586,566.102539 583.998474,531.781555 583.996948,497.460510 
	C583.996338,484.298553 583.989441,471.136627 583.988281,457.508789 
	C585.643555,456.911011 587.295959,456.664673 588.948486,456.664062 
	C623.596558,456.650940 658.244568,456.652374 692.892639,456.684906 
	C700.765076,456.692291 700.730896,456.746735 699.800842,464.806396 
	C699.209229,469.932953 698.737244,475.073334 698.291016,480.641815 
	C698.168274,484.114990 697.966309,487.153839 697.621765,490.962219 
	C696.800598,498.506042 696.121948,505.280334 695.443359,512.054626 
	C695.253662,514.775696 695.063904,517.496826 694.751526,521.008911 
	C693.959778,528.555664 693.290710,535.311340 692.621643,542.067017 
	C692.356750,545.443115 692.091858,548.819214 691.684021,552.977051 
	C690.911621,560.189270 690.282043,566.619690 689.652466,573.050171 
	C689.499634,574.769104 689.346741,576.488098 688.945679,578.768188 
	C688.156860,579.857727 687.616272,580.385986 687.075684,580.914185 
	C686.000549,581.016724 684.925476,581.119202 683.101929,581.273560 
	C679.935242,582.213989 677.516968,583.102478 675.098755,583.990967 
	C674.326294,584.043823 673.553833,584.096741 672.061401,584.254761 
	C669.139465,585.166260 666.937500,585.972534 664.735535,586.778809 
	C655.145630,589.228821 645.554993,591.675842 635.966492,594.131226 
	C633.881653,594.665039 631.804443,595.228882 629.008423,595.875061 
	C626.539734,596.624817 624.786316,597.278442 623.032898,597.932129 
	C621.597412,598.197815 620.161987,598.463501 618.030945,598.841919 
	C615.590088,599.640686 613.844788,600.326782 612.099487,601.012939 
	C611.314819,601.109497 610.530151,601.205994 609.033813,601.385132 
	C605.919678,602.311279 603.517273,603.154846 601.114929,603.998413 
	C599.309570,604.282776 597.504150,604.567139 595.117859,605.014771 
	C594.290588,605.405518 594.044250,605.632935 593.797913,605.860352 
	C593.797913,605.860413 593.924194,605.915710 593.608032,605.773438 
	C592.287415,606.088501 591.282959,606.545776 590.278442,607.003113 
	C589.450317,607.067078 588.622192,607.131042 587.394287,607.317383 
z"/>
<path fill="#B25E43" opacity="1.000000" stroke="none" 
	d="
M582.108032,7.454885 
	C635.273621,7.100587 688.424133,7.037385 741.574707,7.022380 
	C812.554077,7.002341 883.533508,7.004374 954.512817,7.079757 
	C957.220215,7.082632 959.926758,7.948825 962.869568,8.725125 
	C836.402710,9.048785 709.699951,9.060044 582.537598,9.047471 
	C582.083008,8.604906 582.088013,8.186173 582.108032,7.454885 
z"/>
<path fill="#CF5739" opacity="1.000000" stroke="none" 
	d="
M264.905701,696.130371 
	C264.945160,699.799438 264.945160,703.112000 264.945160,706.424561 
	C264.403625,706.412964 263.862061,706.401367 263.320526,706.389771 
	C263.320526,702.624268 263.320526,698.858765 263.320526,695.093262 
	C263.835785,695.320129 264.351013,695.546936 264.905701,696.130371 
z"/>
<path fill="#CF5739" opacity="1.000000" stroke="none" 
	d="
M258.993103,631.836243 
	C259.011230,635.270020 259.011230,638.320435 259.011230,641.370789 
	C258.542938,641.369446 258.074615,641.368164 257.606323,641.366821 
	C257.606323,637.462524 257.606323,633.558167 257.606323,629.653870 
	C257.825592,629.594055 258.044891,629.534241 258.264160,629.474426 
	C258.501099,630.133911 258.738007,630.793335 258.993103,631.836243 
z"/>
<path fill="#EF662C" opacity="1.000000" stroke="none" 
	d="
M343.743286,167.221100 
	C344.064850,169.953033 344.085876,172.831558 343.975281,176.075348 
	C343.710022,173.416306 343.576355,170.391983 343.743286,167.221100 
z"/>
<path fill="#EF662C" opacity="1.000000" stroke="none" 
	d="
M576.435059,707.382690 
	C577.051636,707.296997 577.766296,707.414978 578.636597,707.767334 
	C578.039246,707.863220 577.286133,707.724731 576.435059,707.382690 
z"/>
<path fill="#EF662C" opacity="1.000000" stroke="none" 
	d="
M346.614716,166.439850 
	C346.643555,166.490372 346.479980,166.675217 346.394409,166.589142 
	C346.308838,166.503052 346.585876,166.389343 346.614716,166.439850 
z"/>
<path fill="#FFFFFE" opacity="1.000000" stroke="none" 
	d="
M813.644592,260.031036 
	C810.120789,260.139984 806.792542,260.001495 803.464294,260.000885 
	C732.332642,259.987762 661.201050,259.990875 590.069397,259.988434 
	C582.039734,259.988129 582.033813,259.981354 582.032532,251.962250 
	C582.028442,226.474808 582.020813,200.987366 582.033447,175.499924 
	C582.036926,168.526230 582.132080,168.473633 588.906006,168.886536 
	C590.234680,168.967545 591.570129,168.956970 592.902466,168.957016 
	C661.535339,168.958923 730.168152,168.960022 798.801025,168.952560 
	C806.261963,168.951752 813.722961,168.899536 821.602356,168.902466 
	C820.848938,184.597900 819.748169,200.267838 818.473022,215.923553 
	C817.895691,223.012436 816.971802,230.073090 815.745789,237.766571 
	C814.780151,245.202377 814.273865,252.018143 813.767578,258.833893 
	C813.791748,259.171875 813.815979,259.509827 813.644592,260.031036 
z"/>
<path fill="#E35028" opacity="1.000000" stroke="none" 
	d="
M457.632080,358.255798 
	C456.338196,348.672852 455.285858,339.118988 454.474457,329.544678 
	C452.638550,307.882965 450.921509,286.211212 449.287903,264.104980 
	C451.727539,263.437439 454.035187,263.011200 456.343323,263.008850 
	C496.454926,262.967957 536.566528,262.974304 576.678162,262.983307 
	C583.795166,262.984894 583.989380,263.177307 583.992554,270.247986 
	C584.004517,296.878113 584.001282,323.508240 583.993835,350.138367 
	C583.991638,357.964325 583.943970,358.019440 576.287537,358.021301 
	C540.836182,358.029907 505.384796,358.017395 469.933441,358.036438 
	C465.949921,358.038574 461.966461,358.192200 457.632080,358.255798 
z"/>
<path fill="#ECEAE9" opacity="1.000000" stroke="none" 
	d="
M814.008911,258.513672 
	C814.273865,252.018143 814.780151,245.202377 815.598328,238.175598 
	C815.356873,244.707535 814.803528,251.450485 814.008911,258.513672 
z"/>
<path fill="#ECEAE9" opacity="1.000000" stroke="none" 
	d="
M802.479126,380.981659 
	C802.841797,376.663818 803.434814,372.033813 804.306763,367.191528 
	C803.960266,371.542664 803.334839,376.106049 802.479126,380.981659 
z"/>
<path fill="#ECEAE9" opacity="1.000000" stroke="none" 
	d="
M799.700134,410.337219 
	C799.681885,406.894409 799.911133,403.128784 800.437439,399.125061 
	C800.472229,402.596100 800.209961,406.305267 799.700134,410.337219 
z"/>
<path fill="#EBE9E9" opacity="1.000000" stroke="none" 
	d="
M583.398926,708.042786 
	C585.332458,707.112244 587.644470,706.265991 590.360535,705.494385 
	C588.435547,706.421753 586.106506,707.274414 583.398926,708.042786 
z"/>
<path fill="#ECEAE9" opacity="1.000000" stroke="none" 
	d="
M801.119263,396.742188 
	C800.956360,395.142426 801.043091,393.238800 801.400024,391.146423 
	C801.569763,392.784546 801.469360,394.611450 801.119263,396.742188 
z"/>
<path fill="#ECEAE9" opacity="1.000000" stroke="none" 
	d="
M804.842957,361.549316 
	C803.915527,361.508911 803.038269,361.101776 802.013184,360.428284 
	C802.874573,360.502167 803.883850,360.842377 804.842957,361.549316 
z"/>
<path fill="#ECEAE9" opacity="1.000000" stroke="none" 
	d="
M798.729675,360.062836 
	C798.133545,360.379669 797.144287,360.551575 796.023987,360.483398 
	C796.707520,360.134827 797.521973,360.026367 798.729675,360.062836 
z"/>
<path fill="#ECEAE9" opacity="1.000000" stroke="none" 
	d="
M692.876953,541.840088 
	C693.290710,535.311340 693.959778,528.555664 694.815186,521.462524 
	C694.378479,527.954468 693.755371,534.783813 692.876953,541.840088 
z"/>
<path fill="#ECEAE9" opacity="1.000000" stroke="none" 
	d="
M689.897949,572.808044 
	C690.282043,566.619690 690.911621,560.189270 691.753418,553.438599 
	C691.358215,559.600952 690.750854,566.083435 689.897949,572.808044 
z"/>
<path fill="#ECEAE9" opacity="1.000000" stroke="none" 
	d="
M695.721191,511.821716 
	C696.121948,505.280334 696.800598,498.506042 697.694824,491.417847 
	C697.273376,497.932190 696.636230,504.760498 695.721191,511.821716 
z"/>
<path fill="#EBE9E9" opacity="1.000000" stroke="none" 
	d="
M601.374268,604.145691 
	C603.517273,603.154846 605.919678,602.311279 608.671631,601.548706 
	C606.558655,602.517456 604.096130,603.405212 601.374268,604.145691 
z"/>
<path fill="#ECEAE9" opacity="1.000000" stroke="none" 
	d="
M675.364136,584.131714 
	C677.516968,583.102478 679.935242,582.213989 682.714355,581.394409 
	C680.593323,582.399780 678.111389,583.336060 675.364136,584.131714 
z"/>
<path fill="#EBE9E9" opacity="1.000000" stroke="none" 
	d="
M623.296570,598.109924 
	C624.786316,597.278442 626.539734,596.624817 628.659668,596.030518 
	C627.204224,596.822510 625.382263,597.555176 623.296570,598.109924 
z"/>
<path fill="#ECEAE9" opacity="1.000000" stroke="none" 
	d="
M665.120728,586.846436 
	C666.937500,585.972534 669.139465,585.166260 671.700684,584.400513 
	C669.875305,585.265381 667.690613,586.089722 665.120728,586.846436 
z"/>
<path fill="#EBE9E9" opacity="1.000000" stroke="none" 
	d="
M612.351562,601.159668 
	C613.844788,600.326782 615.590088,599.640686 617.704712,599.004639 
	C616.250549,599.805237 614.427124,600.555786 612.351562,601.159668 
z"/>
<path fill="#ECEAE9" opacity="1.000000" stroke="none" 
	d="
M687.262573,581.060181 
	C687.616272,580.385986 688.156860,579.857727 688.958008,579.201538 
	C688.628845,579.784424 688.039124,580.495300 687.262573,581.060181 
z"/>
<path fill="#EBE9E9" opacity="1.000000" stroke="none" 
	d="
M590.609802,607.030640 
	C591.282959,606.545776 592.287415,606.088501 593.635376,605.710205 
	C592.966309,606.212219 591.953735,606.635132 590.609802,607.030640 
z"/>
<path fill="#EBE9E9" opacity="1.000000" stroke="none" 
	d="
M594.034363,605.838135 
	C594.044250,605.632935 594.290588,605.405518 594.795776,605.238831 
	C594.850586,605.558533 594.589294,605.730652 594.034363,605.838135 
z"/>
</svg>
