<svg version="1.1" id="Layer_1" xmlns="http://www.w3.org/2000/svg" xmlns:xlink="http://www.w3.org/1999/xlink" x="0px" y="0px"
	 width="100%" viewBox="0 0 514 482" enable-background="new 0 0 514 482" xml:space="preserve">
<path fill="#2FB67C" opacity="1.000000" stroke="none" 
	d="
M3.934934,366.010925 
	C3.626330,365.580444 3.317716,365.149994 2.853401,364.163635 
	C2.131798,363.071808 1.565896,362.535919 0.999997,362.000000 
	C1.000000,350.979095 1.000000,339.958221 0.999999,328.468658 
	C1.696309,327.823792 2.706151,327.881866 3.040098,327.434906 
	C6.147617,323.276031 10.385179,322.440613 15.995075,323.255676 
	C18.794878,323.637512 20.776287,323.975189 22.757748,323.975494 
	C178.868027,323.999847 334.978302,324.001312 491.088593,323.963257 
	C493.386353,323.962677 495.683990,323.445221 497.981689,323.169006 
	C503.900177,322.254639 508.923553,323.413574 511.916321,329.905396 
	C511.350037,343.126801 514.106750,355.892456 509.031860,368.061859 
	C509.031860,368.061859 509.007965,368.008026 508.640137,368.065491 
	C503.024994,368.749054 497.779083,369.904449 492.530060,369.918915 
	C442.573822,370.056793 392.617065,369.996674 342.660461,370.002136 
	C231.090897,370.014313 119.521324,370.031433 7.951758,370.046570 
	C7.951758,370.046570 8.003424,370.011627 7.863753,369.734344 
	C6.461030,368.308350 5.197978,367.159637 3.934934,366.010925 
z"/>
<path fill="#2FB67C" opacity="1.000000" stroke="none" 
	d="
M1.000003,436.468628 
	C1.336780,436.117462 1.919736,436.407196 1.975236,436.327881 
	C6.017455,430.550842 11.992105,430.920441 18.046499,430.955139 
	C38.992432,431.075226 59.939491,430.989563 80.886093,431.007660 
	C88.972214,431.014648 92.995796,435.088593 93.004158,443.194580 
	C93.011879,450.675354 92.787201,458.164948 93.086243,465.633789 
	C93.280884,470.495239 92.392288,474.444702 86.946541,476.930725 
	C82.737839,477.418213 79.264687,477.950439 75.789619,477.963196 
	C53.153782,478.046326 30.517534,478.016693 7.881421,478.023926 
	C5.737757,476.131866 3.594092,474.239807 1.225213,472.673889 
	C1.000000,460.979095 1.000000,448.958221 1.000003,436.468628 
z"/>
<path fill="#3BAE80" opacity="1.000000" stroke="none" 
	d="
M0.999997,362.333313 
	C1.565896,362.535919 2.131798,363.071808 2.827197,363.876160 
	C2.522914,364.099731 2.089132,364.054779 1.327675,364.004944 
	C1.000000,363.555542 1.000000,363.111115 0.999997,362.333313 
z"/>
<path fill="#30B57C" opacity="1.000000" stroke="none" 
	d="
M361.135040,129.962830 
	C371.614929,137.753006 373.058228,148.372925 368.751709,158.854538 
	C367.188019,162.660416 364.167725,166.076920 361.201538,169.065048 
	C331.864929,198.618515 302.414307,228.058914 272.961731,257.497070 
	C265.100952,265.354004 248.836014,265.285828 240.947876,257.406189 
	C211.957275,228.446899 182.991104,199.463196 154.015152,170.489273 
	C147.964752,164.439316 143.007828,157.859543 143.017166,148.724625 
	C143.026398,139.675919 149.293396,130.352493 157.901276,126.614906 
	C165.272507,123.414284 177.849045,124.846977 184.084793,131.373642 
	C198.809357,146.785202 214.102722,161.654694 229.275711,176.632309 
	C230.023956,177.370926 230.804138,181.077194 233.229019,176.926178 
	C233.625778,173.712479 233.956604,171.231979 233.958282,168.751266 
	C233.994217,115.790115 233.993210,62.828938 233.999405,9.867763 
	C233.999405,9.867763 234.053284,9.450521 234.276093,9.084566 
	C234.684082,8.484510 234.844345,8.234430 234.979675,7.968370 
	C234.979675,7.968370 234.996338,7.997937 235.336884,7.944971 
	C237.107468,6.575753 238.537521,5.259500 239.967590,3.943251 
	C239.967590,3.943255 239.998672,3.990997 240.169769,3.875170 
	C240.599808,3.595445 240.840073,3.407654 241.061661,3.195970 
	C241.483566,3.146330 241.905472,3.096690 242.889420,3.209323 
	C244.310577,3.301284 245.169708,3.230973 246.028824,3.160662 
	C246.028824,3.160662 246.441162,3.022746 246.970428,2.995319 
	C247.708954,2.964670 247.918213,2.961448 248.127457,2.958226 
	C248.127457,2.958226 248.575699,3.022075 249.177124,3.232468 
	C257.893341,3.629311 266.008118,3.815762 274.122925,4.002213 
	C274.122925,4.002213 274.546082,4.059843 274.919312,4.278450 
	C275.529816,4.684331 275.783661,4.845496 276.054108,4.980552 
	C276.054108,4.980552 275.999420,4.991873 276.083862,5.300890 
	C277.125671,6.395695 278.083069,7.181483 279.040466,7.967268 
	C279.040466,7.967266 279.002289,8.001994 279.125122,8.174291 
	C279.416992,8.602793 279.607635,8.841815 279.819794,9.063654 
	C280.211823,11.287740 280.943390,13.511400 280.946167,15.735970 
	C281.011688,68.159004 280.998657,120.582123 280.999969,173.005234 
	C281.000031,174.827225 280.999969,176.649216 280.999969,179.804672 
	C283.025360,178.091217 284.357880,177.115402 285.514160,175.962814 
	C300.482788,161.041779 315.350433,146.018021 330.455566,131.236862 
	C332.804993,128.937836 336.210144,127.717667 339.971741,125.995522 
	C344.895264,125.979965 348.974121,125.967491 353.052979,125.955017 
	C353.052979,125.955017 353.001709,125.984642 353.211853,126.229706 
	C355.993011,127.637459 358.564026,128.800140 361.135040,129.962830 
z"/>
<path fill="#2FB67C" opacity="1.000000" stroke="none" 
	d="
M226.925980,477.806183 
	C226.925980,477.806183 226.532806,477.935760 225.849335,477.961334 
	C202.298065,477.992737 179.429733,478.076324 156.563126,477.915192 
	C153.370438,477.892700 150.186218,476.667236 147.020905,475.985077 
	C147.043732,475.971497 147.001511,476.002106 146.781616,475.758514 
	C145.018219,474.352203 143.474731,473.189484 141.931213,472.026733 
	C141.931213,472.026764 141.985733,472.002930 141.984863,471.637665 
	C141.712631,469.512543 141.441269,467.752716 141.169922,465.992859 
	C141.118057,457.678070 140.949142,449.361786 141.056061,441.049042 
	C141.125702,435.635742 145.826263,431.047821 151.294861,431.032166 
	C175.083466,430.964081 198.872421,430.975372 222.661102,431.030243 
	C227.573486,431.041565 232.796417,435.384277 232.885040,440.000153 
	C233.086060,450.471558 232.856140,460.951355 232.770996,471.427490 
	C232.768814,471.695251 232.413757,471.960175 231.861511,472.763947 
	C231.314453,473.533875 231.150955,473.780731 231.009277,474.042053 
	C231.009277,474.042053 230.990387,473.990021 230.828491,474.153656 
	C230.423416,474.540344 230.201584,474.782959 230.001099,475.045074 
	C230.001099,475.045074 229.988571,474.988281 229.827377,475.154968 
	C229.422607,475.547607 229.200409,475.792938 228.999588,476.057648 
	C228.999588,476.057648 228.993546,475.993683 228.832581,476.157288 
	C228.448532,476.568390 228.225433,476.815857 228.002319,477.063354 
	C228.002335,477.063354 228.004456,476.999786 227.832214,477.120300 
	C227.395599,477.403687 227.150940,477.592133 226.925980,477.806183 
z"/>
<path fill="#2FB67C" opacity="1.000000" stroke="none" 
	d="
M512.811584,440.040131 
	C512.871826,449.764679 513.420654,459.525391 512.705811,469.192627 
	C512.480286,472.242401 508.870605,475.041931 506.134521,477.933411 
	C479.620911,477.957336 453.782562,478.003845 427.944183,478.050354 
	C427.944183,478.050354 427.991913,478.008636 427.760712,477.863403 
	C426.979889,477.483856 426.430237,477.249603 425.880615,477.015320 
	C425.553833,476.967590 425.300415,476.805328 424.885895,476.119446 
	C424.434235,475.462677 424.194061,475.239624 423.930908,475.041321 
	C423.610016,474.970337 423.355499,474.800110 423.069397,473.878967 
	C421.626556,460.007233 420.494690,446.798157 424.997559,433.879242 
	C425.020966,433.554932 425.169586,433.305145 426.093201,433.043304 
	C431.879852,432.634308 437.015350,432.060577 442.153809,432.033203 
	C463.455902,431.919678 484.758942,431.971252 506.061615,431.962158 
	C506.061615,431.962189 506.004608,431.983093 506.187317,432.198120 
	C507.094421,432.704376 507.818817,432.995544 508.543243,433.286743 
	C508.543243,433.286743 508.705994,433.294037 508.691833,433.738342 
	C510.055634,436.135132 511.433594,438.087616 512.811584,440.040131 
z"/>
<path fill="#2FB67C" opacity="1.000000" stroke="none" 
	d="
M355.986633,431.168152 
	C356.442535,431.126770 356.898407,431.085419 358.037903,431.246979 
	C361.833801,431.957214 364.946136,432.464539 368.058472,432.971863 
	C368.058472,432.971832 368.003265,432.995087 368.061157,433.319336 
	C369.430298,435.090332 370.741486,436.537109 372.052704,437.983887 
	C372.052704,437.983887 372.002106,438.002563 372.005798,438.449768 
	C372.284424,447.266754 372.559387,455.636566 372.834351,464.006378 
	C372.872192,464.449524 372.910034,464.892639 372.748901,466.019043 
	C372.379425,468.483643 372.208923,470.264954 372.038391,472.046265 
	C372.038391,472.046265 372.006927,471.996429 371.714783,472.101440 
	C365.233734,479.430939 356.810333,477.982788 348.787842,477.998840 
	C328.510284,478.039398 308.232666,478.034668 287.955048,478.048096 
	C287.955048,478.048096 288.004333,478.008026 287.885193,477.703674 
	C286.167938,476.278656 284.569794,475.157990 282.971649,474.037323 
	C282.971649,474.037323 282.995087,474.005432 282.968201,473.588989 
	C282.618225,461.429260 282.295135,449.685974 281.972046,437.942719 
	C281.972015,437.942719 281.991211,437.999786 282.293457,437.883057 
	C283.491150,436.332367 284.386627,434.898407 285.282074,433.464417 
	C285.282074,433.464417 285.304565,433.291534 285.805054,433.345856 
	C292.741119,432.929840 299.172211,432.144104 305.613129,432.053223 
	C320.103424,431.848755 334.598785,432.024445 349.091614,431.951782 
	C351.391205,431.940247 353.688354,431.441589 355.986633,431.168152 
z"/>
<path fill="#3BAE80" opacity="1.000000" stroke="none" 
	d="
M8.204827,370.398132 
	C119.521324,370.031433 231.090897,370.014313 342.660461,370.002136 
	C392.617065,369.996674 442.573822,370.056793 492.530060,369.918915 
	C497.779083,369.904449 503.024994,368.749054 508.667206,368.077087 
	C506.437592,369.023590 503.820374,370.855164 501.187469,370.877991 
	C476.201782,371.094482 451.213440,371.000916 426.225830,371.001648 
	C288.794067,371.005646 151.362289,371.012146 13.930511,371.005035 
	C12.106302,371.004944 10.282102,370.838501 8.204827,370.398132 
z"/>
<path fill="#3CB082" opacity="1.000000" stroke="none" 
	d="
M497.518860,323.098755 
	C495.683990,323.445221 493.386353,323.962677 491.088593,323.963257 
	C334.978302,324.001312 178.868027,323.999847 22.757748,323.975494 
	C20.776287,323.975189 18.794878,323.637512 16.432396,323.316040 
	C21.541922,323.117889 27.032494,323.011353 32.523067,323.011322 
	C187.367386,323.010498 342.211700,323.020386 497.518860,323.098755 
z"/>
<path fill="#3FAC80" opacity="1.000000" stroke="none" 
	d="
M233.646912,10.131771 
	C233.993210,62.828938 233.994217,115.790115 233.958282,168.751266 
	C233.956604,171.231979 233.625778,173.712479 233.307312,176.574768 
	C233.110855,156.010345 233.024612,135.064270 233.007004,114.118134 
	C232.979630,81.530128 232.993729,48.942078 233.011093,16.354059 
	C233.012146,14.367916 233.195740,12.381870 233.646912,10.131771 
z"/>
<path fill="#3FAC80" opacity="1.000000" stroke="none" 
	d="
M288.204407,478.402679 
	C308.232666,478.034668 328.510284,478.039398 348.787842,477.998840 
	C356.810333,477.982788 365.233734,479.430939 371.740295,472.117004 
	C370.521790,476.032257 367.805664,478.918243 363.390289,478.926147 
	C338.411652,478.970978 313.432648,478.832977 288.204407,478.402679 
z"/>
<path fill="#3FAD81" opacity="1.000000" stroke="none" 
	d="
M146.998093,475.998657 
	C150.186218,476.667236 153.370438,477.892700 156.563126,477.915192 
	C179.429733,478.076324 202.298065,477.992737 225.644318,477.989838 
	C224.260300,478.331573 222.398712,478.959381 220.535202,478.965088 
	C198.110382,479.033752 175.684280,478.897095 153.260971,479.094788 
	C147.999222,479.141174 144.454453,477.181854 141.979584,472.379272 
	C143.474731,473.189484 145.018219,474.352203 146.780853,475.757446 
	C147.000000,476.000000 146.998093,475.998657 146.998093,475.998657 
z"/>
<path fill="#3EAD80" opacity="1.000000" stroke="none" 
	d="
M505.809143,431.608643 
	C484.758942,431.971252 463.455902,431.919678 442.153809,432.033203 
	C437.015350,432.060577 431.879852,432.634308 426.308044,432.977234 
	C427.478241,432.337036 429.082367,431.104034 430.688599,431.101288 
	C455.644470,431.058594 480.600586,431.175262 505.809143,431.608643 
z"/>
<path fill="#3CB082" opacity="1.000000" stroke="none" 
	d="
M8.144709,478.374451 
	C30.517534,478.016693 53.153782,478.046326 75.789619,477.963196 
	C79.264687,477.950439 82.737839,477.418213 86.632172,477.078003 
	C85.846329,477.679535 84.640762,478.894501 83.433929,478.895752 
	C58.425369,478.921600 33.416668,478.809631 8.144709,478.374451 
z"/>
<path fill="#3EAD80" opacity="1.000000" stroke="none" 
	d="
M428.202240,478.398315 
	C453.782562,478.003845 479.620911,477.957336 505.785217,477.959198 
	C505.412079,478.330963 504.712708,478.937653 504.014008,478.936859 
	C478.829407,478.908478 453.644836,478.823456 428.202240,478.398315 
z"/>
<path fill="#3FAC80" opacity="1.000000" stroke="none" 
	d="
M355.522949,431.101196 
	C353.688354,431.441589 351.391205,431.940247 349.091614,431.951782 
	C334.598785,432.024445 320.103424,431.848755 305.613129,432.053223 
	C299.172211,432.144104 292.741119,432.929840 285.891479,433.334503 
	C287.717346,432.509644 289.952545,431.107941 292.197937,431.091400 
	C313.150696,430.936798 334.105225,431.019989 355.522949,431.101196 
z"/>
<path fill="#3EAD80" opacity="1.000000" stroke="none" 
	d="
M424.671753,434.046143 
	C420.494690,446.798157 421.626556,460.007233 422.987518,473.659790 
	C422.335327,472.171051 421.136292,470.262512 421.089966,468.326385 
	C420.880280,459.560303 420.742126,450.774628 421.148804,442.022522 
	C421.271790,439.375549 423.228943,436.813782 424.671753,434.046143 
z"/>
<path fill="#3BAE80" opacity="1.000000" stroke="none" 
	d="
M509.357391,367.904877 
	C514.106750,355.892456 511.350037,343.126801 511.945862,330.253113 
	C512.343445,331.432922 512.950500,332.968201 512.967468,334.509949 
	C513.058533,342.810486 513.278259,351.126923 512.846313,359.406219 
	C512.698792,362.234100 510.788086,364.970001 509.357391,367.904877 
z"/>
<path fill="#3FAC80" opacity="1.000000" stroke="none" 
	d="
M281.624634,438.201904 
	C282.295135,449.685974 282.618225,461.429260 282.951599,473.599091 
	C282.315521,472.596222 281.121368,471.170868 281.110596,469.736603 
	C281.032318,459.312469 281.192505,448.886505 281.624634,438.201904 
z"/>
<path fill="#3FAC80" opacity="1.000000" stroke="none" 
	d="
M372.900787,463.540588 
	C372.559387,455.636566 372.284424,447.266754 372.017090,438.425293 
	C372.350403,441.828949 372.826233,445.698914 372.962402,449.580841 
	C373.119995,454.073364 372.978729,458.576385 372.900787,463.540588 
z"/>
<path fill="#3FAC80" opacity="1.000000" stroke="none" 
	d="
M273.862122,3.647515 
	C266.008118,3.815762 257.893341,3.629311 249.392792,3.301263 
	C257.205139,3.204050 265.403198,3.248434 273.862122,3.647515 
z"/>
<path fill="#3EAD80" opacity="1.000000" stroke="none" 
	d="
M512.857178,439.688293 
	C511.433594,438.087616 510.055634,436.135132 508.697021,433.819641 
	C510.111877,435.416565 511.507294,437.376526 512.857178,439.688293 
z"/>
<path fill="#3FAD81" opacity="1.000000" stroke="none" 
	d="
M360.968323,129.649811 
	C358.564026,128.800140 355.993011,127.637459 353.212952,126.200111 
	C355.603149,127.062569 358.202362,128.199692 360.968323,129.649811 
z"/>
<path fill="#3FAD81" opacity="1.000000" stroke="none" 
	d="
M352.799622,125.610962 
	C348.974121,125.967491 344.895264,125.979965 340.342896,125.988678 
	C344.095032,125.745583 348.320648,125.506248 352.799622,125.610962 
z"/>
<path fill="#3FAC80" opacity="1.000000" stroke="none" 
	d="
M367.849854,432.642456 
	C364.946136,432.464539 361.833801,431.957214 358.377014,431.309021 
	C361.235443,431.549805 364.438354,431.931458 367.849854,432.642456 
z"/>
<path fill="#3FAC80" opacity="1.000000" stroke="none" 
	d="
M283.102539,474.343506 
	C284.569794,475.157990 286.167938,476.278656 287.865509,477.730408 
	C286.387787,476.924225 284.810577,475.786957 283.102539,474.343506 
z"/>
<path fill="#3FAC80" opacity="1.000000" stroke="none" 
	d="
M239.629898,3.979890 
	C238.537521,5.259500 237.107468,6.575753 235.326416,7.928514 
	C236.414352,6.648860 237.853271,5.332696 239.629898,3.979890 
z"/>
<path fill="#3FAC80" opacity="1.000000" stroke="none" 
	d="
M372.010010,437.645203 
	C370.741486,436.537109 369.430298,435.090332 368.071960,433.291382 
	C369.339020,434.394958 370.653168,435.850739 372.010010,437.645203 
z"/>
<path fill="#3FAC80" opacity="1.000000" stroke="none" 
	d="
M285.028656,433.662720 
	C284.386627,434.898407 283.491150,436.332367 282.264709,437.874115 
	C282.880890,436.608246 283.828064,435.234619 285.028656,433.662720 
z"/>
<path fill="#3BAE80" opacity="1.000000" stroke="none" 
	d="
M3.978734,366.359131 
	C5.197978,367.159637 6.461030,368.308350 7.847046,369.760864 
	C6.654187,368.945557 5.338365,367.826447 3.978734,366.359131 
z"/>
<path fill="#3FAC80" opacity="1.000000" stroke="none" 
	d="
M278.923431,7.679123 
	C278.083069,7.181483 277.125671,6.395695 276.103577,5.281106 
	C276.961395,5.765196 277.883881,6.578086 278.923431,7.679123 
z"/>
<path fill="#3FAC80" opacity="1.000000" stroke="none" 
	d="
M372.369568,471.823547 
	C372.208923,470.264954 372.379425,468.483643 372.690247,466.348938 
	C372.787323,467.863953 372.744049,469.732391 372.369568,471.823547 
z"/>
<path fill="#3FAD81" opacity="1.000000" stroke="none" 
	d="
M141.093750,466.393372 
	C141.441269,467.752716 141.712631,469.512543 141.972290,471.664612 
	C141.646255,470.302521 141.331909,468.548218 141.093750,466.393372 
z"/>
<path fill="#3EAD80" opacity="1.000000" stroke="none" 
	d="
M508.355530,433.044495 
	C507.818817,432.995544 507.094421,432.704376 506.189453,432.167847 
	C506.728546,432.215790 507.448212,432.509033 508.355530,433.044495 
z"/>
<path fill="#3FAC80" opacity="1.000000" stroke="none" 
	d="
M245.648041,3.095129 
	C245.169708,3.230973 244.310577,3.301284 243.205566,3.260108 
	C243.728867,3.108946 244.498047,3.069271 245.648041,3.095129 
z"/>
<path fill="#3EAD80" opacity="1.000000" stroke="none" 
	d="
M426.027100,477.304230 
	C426.430237,477.249603 426.979889,477.483856 427.774841,477.891754 
	C427.404663,477.907959 426.789154,477.750549 426.027100,477.304230 
z"/>
<path fill="#3FAC80" opacity="1.000000" stroke="none" 
	d="
M248.021622,2.723118 
	C247.918213,2.961448 247.708954,2.964670 247.185486,2.963592 
	C247.219452,2.802198 247.567627,2.645104 248.021622,2.723118 
z"/>
<path fill="#3FAD81" opacity="1.000000" stroke="none" 
	d="
M227.195435,477.836609 
	C227.150940,477.592133 227.395599,477.403687 227.862793,477.129059 
	C227.865387,477.300537 227.665146,477.583771 227.195435,477.836609 
z"/>
<path fill="#3FAC80" opacity="1.000000" stroke="none" 
	d="
M240.798981,3.178098 
	C240.840073,3.407654 240.599808,3.595445 240.141525,3.871475 
	C240.140228,3.709147 240.338257,3.434686 240.798981,3.178098 
z"/>
<path fill="#3FAD81" opacity="1.000000" stroke="none" 
	d="
M228.259613,476.981506 
	C228.225433,476.815857 228.448532,476.568390 228.864502,476.160950 
	C228.877213,476.300537 228.697067,476.600098 228.259613,476.981506 
z"/>
<path fill="#3EAD80" opacity="1.000000" stroke="none" 
	d="
M424.012421,475.290985 
	C424.194061,475.239624 424.434235,475.462677 424.803650,475.903168 
	C424.668549,475.910797 424.381226,475.725739 424.012421,475.290985 
z"/>
<path fill="#3FAD81" opacity="1.000000" stroke="none" 
	d="
M229.248001,475.966064 
	C229.200409,475.792938 229.422607,475.547607 229.855881,475.160706 
	C229.862534,475.291351 229.679474,475.582886 229.248001,475.966064 
z"/>
<path fill="#3FAD81" opacity="1.000000" stroke="none" 
	d="
M230.248566,474.956055 
	C230.201584,474.782959 230.423416,474.540344 230.855759,474.158386 
	C230.861938,474.288666 230.678986,474.577850 230.248566,474.956055 
z"/>
<path fill="#3FAD81" opacity="1.000000" stroke="none" 
	d="
M231.247467,473.952148 
	C231.150955,473.780731 231.314453,473.533875 231.645752,473.132233 
	C231.689713,473.262756 231.587692,473.562500 231.247467,473.952148 
z"/>
<path fill="#3FAC80" opacity="1.000000" stroke="none" 
	d="
M275.966522,4.733408 
	C275.783661,4.845496 275.529816,4.684331 275.121094,4.348173 
	C275.259430,4.294948 275.569183,4.390606 275.966522,4.733408 
z"/>
<path fill="#3FAC80" opacity="1.000000" stroke="none" 
	d="
M234.739029,8.056591 
	C234.844345,8.234430 234.684082,8.484510 234.352051,8.888404 
	C234.302933,8.753736 234.400665,8.449274 234.739029,8.056591 
z"/>
<path fill="#3FAC80" opacity="1.000000" stroke="none" 
	d="
M279.829468,8.801270 
	C279.607635,8.841815 279.416992,8.602793 279.131348,8.149289 
	C279.289581,8.147623 279.564362,8.343254 279.829468,8.801270 
z"/>
<path fill="#3FAD81" opacity="1.000000" stroke="none" 
	d="
M147.000763,476.001038 
	C147.001511,476.002106 147.043732,475.971497 147.020905,475.985077 
	C146.998093,475.998657 147.000000,476.000000 147.000763,476.001038 
z"/>
</svg>
